<svg width="20" height="20" viewBox="0 0 20 20" fill="none" xmlns="http://www.w3.org/2000/svg" class="sc-cYTGjc ddFTKI"><path d="M15.9583 9.45833H10.5417V4.04167C10.5417 3.89801 10.4846 3.76023 10.383 3.65865C10.2814 3.55707 10.1437 3.5 10 3.5C9.85634 3.5 9.71857 3.55707 9.61698 3.65865C9.5154 3.76023 9.45833 3.89801 9.45833 4.04167V9.45833H4.04167C3.89801 9.45833 3.76023 9.5154 3.65865 9.61698C3.55707 9.71857 3.5 9.85634 3.5 10C3.5 10.1437 3.55707 10.2814 3.65865 10.383C3.76023 10.4846 3.89801 10.5417 4.04167 10.5417H9.45833V15.9583C9.45833 16.102 9.5154 16.2398 9.61698 16.3414C9.71857 16.4429 9.85634 16.5 10 16.5C10.1437 16.5 10.2814 16.4429 10.383 16.3414C10.4846 16.2398 10.5417 16.102 10.5417 15.9583V10.5417H15.9583C16.102 10.5417 16.2398 10.4846 16.3414 10.383C16.4429 10.2814 16.5 10.1437 16.5 10C16.5 9.85634 16.4429 9.71857 16.3414 9.61698C16.2398 9.5154 16.102 9.45833 15.9583 9.45833Z" fill="#f6f6f6"/></svg>