<svg width="28" height="32" fill="none" xmlns="http://www.w3.org/2000/svg">
  <path d="M24.86 10.7C24.86 4 18.68 0 12.7 0A12.62 12.62 0 000 12.82c0 4.45 1.6 7.8 4.8 9.95.17.12.27.31.27.53v5.44c0 .35.94 3.26 6.86 3.26s7.12-2.91 7.12-3.26V26.1c0-.35.28-.64.63-.64h1.91a3.18 3.18 0 003.18-3.18v-2.53c0-.35.28-.64.63-.64h.7c.5-.03.94-.27 1.23-.67.18-.28.26-.61.24-.95v-.17c.1-1.42-.91-3.2-1.8-4.78a9.22 9.22 0 01-.92-1.84zm-8.05 2.02a.63.63 0 00-.56.24 4.47 4.47 0 01-3.03 1.66.64.64 0 00-.5.34 5.04 5.04 0 01-4.46 2.87 5.26 5.26 0 01-5.08-5.41 5.56 5.56 0 011.84-4.17c.1-.09.17-.2.2-.33a4.44 4.44 0 015.36-3.33c.23.05.46-.02.62-.19a3.79 3.79 0 015.92.44c.1.15.27.25.46.27a3.82 3.82 0 01-.77 7.6v.01z" fill="#668aff"/>
</svg>